<svg xmlns="http://www.w3.org/2000/svg" xmlns:cc="http://web.resource.org/cc/" xmlns:svg="http://www.w3.org/2000/svg" id="svg2" width="744" height="850"><defs id="defs4"><filter id="filter3641" width="1.214" height="1.363" x="-.107" y="-.182"><feGaussianBlur id="feGaussianBlur3643" stdDeviation="6.466"/></filter><filter id="filter10486" width="1.216" height="1.457" x="-.108" y="-.229"><feGaussianBlur id="feGaussianBlur10488" stdDeviation="7.858"/></filter><filter id="filter11505" width="1.207" height="1.375" x="-.103" y="-.188"><feGaussianBlur id="feGaussianBlur11507" stdDeviation="6.446"/></filter><filter id="filter12524" width="1.207" height="1.375" x="-.103" y="-.188"><feGaussianBlur id="feGaussianBlur12526" stdDeviation="6.448"/></filter><filter id="filter13574" width="1.292" height="1.288" x="-.146" y="-.144"><feGaussianBlur id="feGaussianBlur13576" stdDeviation="14.132"/></filter><filter id="filter14635" width="1.283" height="1.279" x="-.142" y="-.14"><feGaussianBlur id="feGaussianBlur14637" stdDeviation="16.599"/></filter><filter id="filter15647" width="1.186" height="1.338" x="-.093" y="-.169"><feGaussianBlur id="feGaussianBlur15649" stdDeviation="5.804"/></filter></defs><metadata id="metadata7"/><g id="layer1"><rect style="opacity:1;color:#000;fill:#000;fill-opacity:1;fill-rule:nonzero;stroke:#000;stroke-width:2.5;stroke-linecap:square;stroke-linejoin:miter;marker:none;marker-start:none;marker-mid:none;marker-end:none;stroke-miterlimit:4;stroke-dasharray:none;stroke-dashoffset:0;stroke-opacity:1;visibility:visible;display:inline;overflow:visible;filter:url(#filter15647);enable-background:accumulate" id="rect14640" width="147.143" height="80" x="31.628" y="449.695" rx="18.571" ry="17.143"/><path style="opacity:1;color:#000;fill:#000;fill-opacity:1;fill-rule:nonzero;stroke:#000;stroke-width:6.37171316;stroke-linecap:square;stroke-linejoin:miter;marker:none;marker-start:none;marker-mid:none;marker-end:none;stroke-miterlimit:4;stroke-dasharray:none;stroke-dashoffset:0;stroke-opacity:1;visibility:visible;display:inline;overflow:visible;filter:url(#filter14635);enable-background:accumulate" id="path13588" d="M -468.26522,564.81544 L -484.11264,569.24292 L -473.12704,581.49282 L -489.40441,583.89918 L -480.04075,597.42934 L -496.49137,597.77663 L -488.89732,612.37368 L -505.26175,610.65643 L -499.55708,626.09016 L -515.57723,622.33544 L -511.85191,638.36246 L -527.27515,632.62948 L -525.58792,648.99703 L -540.17101,641.37622 L -540.54848,657.82617 L -554.06144,648.4377 L -556.49766,664.71064 L -568.72738,653.70258 L -573.18393,669.54185 L -583.93754,657.0878 L -590.34413,672.24363 L -599.45204,658.54 L -607.70764,672.77336 L -615.02621,658.03626 L -625.00063,671.12268 L -630.41444,655.58453 L -641.95038,667.31764 L -645.37405,651.22348 L -658.28957,661.41823 L -659.66911,645.02188 L -673.76053,653.5175 L -673.07419,637.07753 L -688.11927,643.74004 L -685.37787,627.51573 L -701.13935,632.24005 L -696.38612,616.48727 L -712.61543,619.1989 L -705.92533,604.16607 L -722.36653,604.82224 L -713.84507,590.74644 L -730.23887,589.33681 L -720.02044,576.44002 L -736.10829,572.98683 L -724.35404,561.47244 L -739.88223,556.03013 L -726.77753,546.07974 L -741.50118,538.73415 L -727.2527,530.50467 L -740.93959,521.37163 L -725.77204,514.99286 L -738.20634,504.21642 L -722.35892,499.78894 L -733.34452,487.53904 L -717.06715,485.13268 L -726.43081,471.60252 L -709.98019,471.25523 L -717.57424,456.65818 L -701.20981,458.37544 L -706.91448,442.9417 L -690.89432,446.69642 L -694.61965,430.6694 L -679.19641,436.40238 L -680.88364,420.03483 L -666.30055,427.65564 L -665.92308,411.20569 L -652.41012,420.59416 L -649.9739,404.32122 L -637.74418,415.32928 L -633.28763,399.49001 L -622.53402,411.94406 L -616.12743,396.78823 L -607.01952,410.49186 L -598.76391,396.2585 L -591.44534,410.9956 L -581.47093,397.90918 L -576.05711,413.44733 L -564.52118,401.71422 L -561.09751,417.80838 L -548.18199,407.61363 L -546.80244,424.00998 L -532.71103,415.51436 L -533.39737,431.95433 L -518.35229,425.29182 L -521.09369,441.51613 L -505.33221,436.79181 L -510.08544,452.54459 L -493.85613,449.83296 L -500.54622,464.86579 L -484.10503,464.20962 L -492.62648,478.28542 L -476.23269,479.69505 L -486.45112,492.59184 L -470.36327,496.04503 L -482.11752,507.55942 L -466.58933,513.00173 L -479.69403,522.95212 L -464.97038,530.29772 L -479.21886,538.52719 L -465.53196,547.66023 L -480.69952,554.039 L -468.26522,564.81544 z" transform="matrix(0.5321035,0,0,0.2893154,790.14597,606.14683)"/><path style="opacity:1;color:#000;fill:#000;fill-opacity:1;fill-rule:nonzero;stroke:#000;stroke-width:5.26808691;stroke-linecap:square;stroke-linejoin:miter;marker:none;marker-start:none;marker-mid:none;marker-end:none;stroke-miterlimit:4;stroke-dasharray:none;stroke-dashoffset:0;stroke-opacity:1;visibility:visible;display:inline;overflow:visible;filter:url(#filter13574);enable-background:accumulate" id="path13578" d="M -566.05,626.79178 C -585.44936,627.25923 -682.64885,534.63384 -683.1163,515.23448 C -683.58376,495.83513 -590.95836,398.63564 -571.55901,398.16818 C -552.15965,397.70073 -454.96016,490.32612 -454.49271,509.72548 C -454.02525,529.12483 -546.65065,626.32432 -566.05,626.79178 z" transform="matrix(0.6435938,0,0,0.3499147,674.28894,428.87409)"/><path style="opacity:1;color:#000;fill:#000;fill-opacity:1;fill-rule:nonzero;stroke:#000;stroke-width:5.26808691;stroke-linecap:square;stroke-linejoin:miter;marker:none;marker-start:none;marker-mid:none;marker-end:none;stroke-miterlimit:4;stroke-dasharray:none;stroke-dashoffset:0;stroke-opacity:1;visibility:visible;display:inline;overflow:visible;filter:url(#filter13574);enable-background:accumulate" id="path12539" d="M -566.05,626.79178 C -585.44936,627.25923 -682.64885,534.63384 -683.1163,515.23448 C -683.58376,495.83513 -590.95836,398.63564 -571.55901,398.16818 C -552.15965,397.70073 -454.96016,490.32612 -454.49271,509.72548 C -454.02525,529.12483 -546.65065,626.32432 -566.05,626.79178 z" transform="matrix(0.6435938,0,0,0.3499147,984.8316,429.4543)"/><rect style="opacity:1;color:#000;fill:#000;fill-opacity:1;fill-rule:nonzero;stroke:#000;stroke-width:2.5;stroke-linecap:square;stroke-linejoin:miter;marker:none;marker-start:none;marker-mid:none;marker-end:none;stroke-miterlimit:4;stroke-dasharray:none;stroke-dashoffset:0;stroke-opacity:1;visibility:visible;display:inline;overflow:visible;filter:url(#filter12524);enable-background:accumulate" id="rect12535" width="147.143" height="80" x="546.949" y="448.941" rx="18.571" ry="17.143"/><rect style="opacity:1;color:#000;fill:#000;fill-opacity:1;fill-rule:nonzero;stroke:#000;stroke-width:2.5;stroke-linecap:square;stroke-linejoin:miter;marker:none;marker-start:none;marker-mid:none;marker-end:none;stroke-miterlimit:4;stroke-dasharray:none;stroke-dashoffset:0;stroke-opacity:1;visibility:visible;display:inline;overflow:visible;filter:url(#filter12524);enable-background:accumulate" id="rect12533" width="147.143" height="80" x="237.099" y="449.405" rx="18.571" ry="17.143"/><rect style="opacity:1;color:#000;fill:#000;fill-opacity:1;fill-rule:nonzero;stroke:#000;stroke-width:2.5;stroke-linecap:square;stroke-linejoin:miter;marker:none;marker-start:none;marker-mid:none;marker-end:none;stroke-miterlimit:4;stroke-dasharray:none;stroke-dashoffset:0;stroke-opacity:1;visibility:visible;display:inline;overflow:visible;filter:url(#filter12524);enable-background:accumulate" id="rect12531" width="147.143" height="80" x="235.664" y="326.596" rx="18.571" ry="17.143"/><rect style="opacity:1;color:#000;fill:#000;fill-opacity:1;fill-rule:nonzero;stroke:#000;stroke-width:2.5;stroke-linecap:square;stroke-linejoin:miter;marker:none;marker-start:none;marker-mid:none;marker-end:none;stroke-miterlimit:4;stroke-dasharray:none;stroke-dashoffset:0;stroke-opacity:1;visibility:visible;display:inline;overflow:visible;filter:url(#filter12524);enable-background:accumulate" id="rect11509" width="147.143" height="80" x="545.138" y="326.379" rx="18.571" ry="17.143"/><path style="opacity:1;color:#000;fill:#000;fill-opacity:1;fill-rule:nonzero;stroke:#000;stroke-width:2.5;stroke-linecap:square;stroke-linejoin:miter;marker:none;marker-start:none;marker-mid:none;marker-end:none;stroke-miterlimit:4;stroke-dasharray:none;stroke-dashoffset:0;stroke-opacity:1;visibility:visible;display:inline;overflow:visible;filter:url(#filter11505);enable-background:accumulate" id="path10490" d="M 561.89536,204.8895 C 552.12555,204.8895 544.17335,211.78124 543.39536,220.60825 C 543.5111,220.6068 543.623,220.60825 543.73911,220.60825 C 557.9334,220.60825 569.45786,231.48379 569.45786,244.8895 C 569.45786,258.29522 557.9334,269.17075 543.73911,269.17075 C 543.623,269.17075 543.5111,269.1722 543.39536,269.17075 C 544.17028,278.00063 552.12333,284.88951 561.89536,284.8895 L 671.89536,284.8895 C 682.18393,284.8895 690.45786,277.26165 690.45786,267.7645 L 690.45786,222.04575 C 690.45786,212.54861 682.18394,204.8895 671.89536,204.8895 L 561.89536,204.8895 z"/><path style="opacity:1;color:#000;fill:#000;fill-opacity:1;fill-rule:nonzero;stroke:#000;stroke-width:2.5;stroke-linecap:square;stroke-linejoin:miter;marker:none;marker-start:none;marker-mid:none;marker-end:none;stroke-miterlimit:4;stroke-dasharray:none;stroke-dashoffset:0;stroke-opacity:1;visibility:visible;display:inline;overflow:visible;filter:url(#filter10486);enable-background:accumulate" id="path9459" d="M 256.62089,208.09258 C 246.33232,208.09258 238.05839,215.72044 238.05839,225.21758 L 238.05839,270.93633 C 238.05839,280.43347 246.33231,288.09259 256.62089,288.09258 L 366.62089,288.09258 C 376.38154,288.09258 384.36142,281.18894 385.15214,272.37383 C 399.04042,272.04133 410.21464,261.28896 410.21464,248.09258 C 410.21464,234.89621 399.04043,224.11258 385.15214,223.78008 C 384.36142,214.96497 376.38155,208.09258 366.62089,208.09258 L 256.62089,208.09258 z"/><path style="opacity:.63888889;color:#000;fill:#000;fill-opacity:1;fill-rule:nonzero;stroke:#000;stroke-width:2.50692391;stroke-linecap:square;stroke-linejoin:miter;marker:none;marker-start:none;marker-mid:none;marker-end:none;stroke-miterlimit:4;stroke-dasharray:none;stroke-dashoffset:0;stroke-opacity:1;visibility:visible;display:inline;overflow:visible;filter:url(#filter3641);enable-background:accumulate" id="path2562" d="M 397.14287 150.93361 A 71.428574 41.42857 0 1 1 254.28572,150.93361 A 71.428574 41.42857 0 1 1 397.14287 150.93361 z" transform="matrix(1.030001,0,0,0.9655173,130.58903,-49.791722)"/><path style="opacity:1;color:#000;fill:#ffb13b;fill-opacity:1;fill-rule:nonzero;stroke:#ff9015;stroke-width:2.50692391;stroke-linecap:square;stroke-linejoin:miter;marker:none;marker-start:none;marker-mid:none;marker-end:none;stroke-miterlimit:4;stroke-dasharray:none;stroke-dashoffset:0;stroke-opacity:1;visibility:visible;display:inline;overflow:visible;enable-background:accumulate" id="path2162" d="M 397.14287 150.93361 A 71.428574 41.42857 0 1 1 254.28572,150.93361 A 71.428574 41.42857 0 1 1 397.14287 150.93361 z" transform="matrix(1.030001,0,0,0.9655173,128.33958,-56.79786)"/><rect style="opacity:1;color:#000;fill:#ffb13b;fill-opacity:1;fill-rule:nonzero;stroke:#ff9015;stroke-width:2.5;stroke-linecap:square;stroke-linejoin:miter;marker:none;marker-start:none;marker-mid:none;marker-end:none;stroke-miterlimit:4;stroke-dasharray:none;stroke-dashoffset:0;stroke-opacity:1;visibility:visible;display:inline;overflow:visible;enable-background:accumulate" id="rect4103" width="147.143" height="80" x="233.147" y="323.355" rx="18.571" ry="17.143"/><rect style="opacity:1;color:#000;fill:#ffb13b;fill-opacity:1;fill-rule:nonzero;stroke:#ff9015;stroke-width:2.5;stroke-linecap:square;stroke-linejoin:miter;marker:none;marker-start:none;marker-mid:none;marker-end:none;stroke-miterlimit:4;stroke-dasharray:none;stroke-dashoffset:0;stroke-opacity:1;visibility:visible;display:inline;overflow:visible;enable-background:accumulate" id="rect4105" width="147.143" height="80" x="543.048" y="444.88" rx="18.571" ry="17.143"/><rect style="opacity:1;color:#000;fill:#ffb13b;fill-opacity:1;fill-rule:nonzero;stroke:#ff9015;stroke-width:2.5;stroke-linecap:square;stroke-linejoin:miter;marker:none;marker-start:none;marker-mid:none;marker-end:none;stroke-miterlimit:4;stroke-dasharray:none;stroke-dashoffset:0;stroke-opacity:1;visibility:visible;display:inline;overflow:visible;enable-background:accumulate" id="rect4107" width="147.143" height="80" x="28.712" y="444.88" rx="18.571" ry="17.143"/><rect style="opacity:1;color:#000;fill:#ffb13b;fill-opacity:1;fill-rule:nonzero;stroke:#ff9015;stroke-width:2.5;stroke-linecap:square;stroke-linejoin:miter;marker:none;marker-start:none;marker-mid:none;marker-end:none;stroke-miterlimit:4;stroke-dasharray:none;stroke-dashoffset:0;stroke-opacity:1;visibility:visible;display:inline;overflow:visible;enable-background:accumulate" id="rect4109" width="147.143" height="80" x="543.048" y="323.284" rx="18.571" ry="17.143"/><rect style="opacity:1;color:#000;fill:#ffb13b;fill-opacity:1;fill-rule:nonzero;stroke:#ff9015;stroke-width:2.5;stroke-linecap:square;stroke-linejoin:miter;marker:none;marker-start:none;marker-mid:none;marker-end:none;stroke-miterlimit:4;stroke-dasharray:none;stroke-dashoffset:0;stroke-opacity:1;visibility:visible;display:inline;overflow:visible;enable-background:accumulate" id="rect4111" width="147.143" height="80" x="233.147" y="444.88" rx="18.571" ry="17.143"/><path style="opacity:1;color:#000;fill:#ffb13b;fill-opacity:1;fill-rule:nonzero;stroke:#ff9015;stroke-width:2.5;stroke-linecap:square;stroke-linejoin:miter;marker:none;marker-start:none;marker-mid:none;marker-end:none;stroke-miterlimit:4;stroke-dasharray:none;stroke-dashoffset:0;stroke-opacity:1;visibility:visible;display:inline;overflow:visible;enable-background:accumulate" id="rect4113" d="M 251.70991,201.83046 C 241.42134,201.83046 233.14741,209.45832 233.14741,218.95546 L 233.14741,264.67421 C 233.14741,274.17135 241.42133,281.83047 251.70991,281.83046 L 361.70991,281.83046 C 371.47056,281.83046 379.45044,274.92682 380.24116,266.11171 C 394.12944,265.77921 405.30366,255.02684 405.30366,241.83046 C 405.30366,228.63409 394.12945,217.85046 380.24116,217.51796 C 379.45044,208.70285 371.47057,201.83046 361.70991,201.83046 L 251.70991,201.83046 z"/><path style="opacity:1;color:#000;fill:#ffb13b;fill-opacity:1;fill-rule:nonzero;stroke:#ff9015;stroke-width:5.26808691;stroke-linecap:square;stroke-linejoin:miter;marker:none;marker-start:none;marker-mid:none;marker-end:none;stroke-miterlimit:4;stroke-dasharray:none;stroke-dashoffset:0;stroke-opacity:1;visibility:visible;display:inline;overflow:visible;enable-background:accumulate" id="path6063" d="M -566.05,626.79178 C -585.44936,627.25923 -682.64885,534.63384 -683.1163,515.23448 C -683.58376,495.83513 -590.95836,398.63564 -571.55901,398.16818 C -552.15965,397.70073 -454.96016,490.32612 -454.49271,509.72548 C -454.02525,529.12483 -546.65065,626.32432 -566.05,626.79178 z" transform="matrix(0.6435938,0,0,0.3499147,672.79796,427.08003)"/><path style="opacity:1;color:#000;fill:#ffb13b;fill-opacity:1;fill-rule:nonzero;stroke:#ff9015;stroke-width:5.26808691;stroke-linecap:square;stroke-linejoin:miter;marker:none;marker-start:none;marker-mid:none;marker-end:none;stroke-miterlimit:4;stroke-dasharray:none;stroke-dashoffset:0;stroke-opacity:1;visibility:visible;display:inline;overflow:visible;enable-background:accumulate" id="path6065" d="M -566.05,626.79178 C -585.44936,627.25923 -682.64885,534.63384 -683.1163,515.23448 C -683.58376,495.83513 -590.95836,398.63564 -571.55901,398.16818 C -552.15965,397.70073 -454.96016,490.32612 -454.49271,509.72548 C -454.02525,529.12483 -546.65065,626.32432 -566.05,626.79178 z" transform="matrix(0.6435938,0,0,0.3499147,982.69814,427.08644)"/><path style="opacity:1;color:#000;fill:#ffb13b;fill-opacity:1;fill-rule:nonzero;stroke:#ff9015;stroke-width:6.37171316;stroke-linecap:square;stroke-linejoin:miter;marker:none;marker-start:none;marker-mid:none;marker-end:none;stroke-miterlimit:4;stroke-dasharray:none;stroke-dashoffset:0;stroke-opacity:1;visibility:visible;display:inline;overflow:visible;enable-background:accumulate" id="path6067" d="M -468.26522,564.81544 L -484.11264,569.24292 L -473.12704,581.49282 L -489.40441,583.89918 L -480.04075,597.42934 L -496.49137,597.77663 L -488.89732,612.37368 L -505.26175,610.65643 L -499.55708,626.09016 L -515.57723,622.33544 L -511.85191,638.36246 L -527.27515,632.62948 L -525.58792,648.99703 L -540.17101,641.37622 L -540.54848,657.82617 L -554.06144,648.4377 L -556.49766,664.71064 L -568.72738,653.70258 L -573.18393,669.54185 L -583.93754,657.0878 L -590.34413,672.24363 L -599.45204,658.54 L -607.70764,672.77336 L -615.02621,658.03626 L -625.00063,671.12268 L -630.41444,655.58453 L -641.95038,667.31764 L -645.37405,651.22348 L -658.28957,661.41823 L -659.66911,645.02188 L -673.76053,653.5175 L -673.07419,637.07753 L -688.11927,643.74004 L -685.37787,627.51573 L -701.13935,632.24005 L -696.38612,616.48727 L -712.61543,619.1989 L -705.92533,604.16607 L -722.36653,604.82224 L -713.84507,590.74644 L -730.23887,589.33681 L -720.02044,576.44002 L -736.10829,572.98683 L -724.35404,561.47244 L -739.88223,556.03013 L -726.77753,546.07974 L -741.50118,538.73415 L -727.2527,530.50467 L -740.93959,521.37163 L -725.77204,514.99286 L -738.20634,504.21642 L -722.35892,499.78894 L -733.34452,487.53904 L -717.06715,485.13268 L -726.43081,471.60252 L -709.98019,471.25523 L -717.57424,456.65818 L -701.20981,458.37544 L -706.91448,442.9417 L -690.89432,446.69642 L -694.61965,430.6694 L -679.19641,436.40238 L -680.88364,420.03483 L -666.30055,427.65564 L -665.92308,411.20569 L -652.41012,420.59416 L -649.9739,404.32122 L -637.74418,415.32928 L -633.28763,399.49001 L -622.53402,411.94406 L -616.12743,396.78823 L -607.01952,410.49186 L -598.76391,396.2585 L -591.44534,410.9956 L -581.47093,397.90918 L -576.05711,413.44733 L -564.52118,401.71422 L -561.09751,417.80838 L -548.18199,407.61363 L -546.80244,424.00998 L -532.71103,415.51436 L -533.39737,431.95433 L -518.35229,425.29182 L -521.09369,441.51613 L -505.33221,436.79181 L -510.08544,452.54459 L -493.85613,449.83296 L -500.54622,464.86579 L -484.10503,464.20962 L -492.62648,478.28542 L -476.23269,479.69505 L -486.45112,492.59184 L -470.36327,496.04503 L -482.11752,507.55942 L -466.58933,513.00173 L -479.69403,522.95212 L -464.97038,530.29772 L -479.21886,538.52719 L -465.53196,547.66023 L -480.69952,554.039 L -468.26522,564.81544 z" transform="matrix(0.5321035,0,0,0.2893154,788.80949,603.67972)"/><path style="opacity:1;color:#000;fill:#ffb13b;fill-opacity:1;fill-rule:nonzero;stroke:#ff9015;stroke-width:2.5;stroke-linecap:square;stroke-linejoin:miter;marker:none;marker-start:none;marker-mid:none;marker-end:none;stroke-miterlimit:4;stroke-dasharray:none;stroke-dashoffset:0;stroke-opacity:1;visibility:visible;display:inline;overflow:visible;enable-background:accumulate" id="rect8609" d="M 559.62808,201.7211 C 549.85827,201.7211 541.90607,208.61284 541.12808,217.43985 C 541.24382,217.4384 541.35572,217.43985 541.47183,217.43985 C 555.66612,217.43985 567.19058,228.31539 567.19058,241.7211 C 567.19058,255.12682 555.66612,266.00235 541.47183,266.00235 C 541.35572,266.00235 541.24382,266.0038 541.12808,266.00235 C 541.903,274.83223 549.85605,281.72111 559.62808,281.7211 L 669.62808,281.7211 C 679.91665,281.7211 688.19058,274.09325 688.19058,264.5961 L 688.19058,218.87735 C 688.19058,209.38021 679.91666,201.7211 669.62808,201.7211 L 559.62808,201.7211 z"/><path style="fill:#644;fill-opacity:1;fill-rule:evenodd;stroke:#644;stroke-width:1px;stroke-linecap:butt;stroke-linejoin:miter;stroke-opacity:1" id="path5112" d="M -177.48985,257.00823 L -161.1503,249.97839 L -161.16898,264.82118 L -177.48985,257.00823 z"/><path style="fill:#644;fill-opacity:1;fill-rule:evenodd;stroke:#644;stroke-width:1px;stroke-linecap:butt;stroke-linejoin:miter;stroke-opacity:1" id="path6083" d="M -88.620188,245.50551 L -104.95974,252.53535 L -104.94106,237.69256 L -88.620188,245.50551 z"/><path style="fill:#644;fill-opacity:1;fill-rule:evenodd;stroke:#644;stroke-width:1px;stroke-linecap:butt;stroke-linejoin:miter;stroke-opacity:1" id="path6085" d="M -149.06892,176.45047 L -156.09876,160.11092 L -141.25597,160.1296 L -149.06892,176.45047 z"/><path style="fill:#644;fill-opacity:1;fill-rule:evenodd;stroke:#644;stroke-width:.99999994px;stroke-linecap:butt;stroke-linejoin:miter;stroke-opacity:1" id="path6087" d="M 306.46009,199.40499 L 299.57074,183.06544 L 314.1169,183.08412 L 306.46009,199.40499 z"/><g id="g36470"><g id="g36466"><path style="fill:none;fill-rule:evenodd;stroke:#644;stroke-width:.99999994px;stroke-linecap:butt;stroke-linejoin:miter;stroke-opacity:1" id="path2178" d="M 465.71144,129.56455 L 465.39465,167.65182"/><path style="fill:none;fill-rule:evenodd;stroke:#644;stroke-width:.99999994px;stroke-linecap:butt;stroke-linejoin:miter;stroke-opacity:1" id="path2176" d="M 306.298,190.29172 L 306.298,167.22049 L 616.04741,168.10785 L 616.04741,195.61586"/></g><path id="path6089" d="M 615.43424,199.392 L 608.54489,183.05245 L 623.09105,183.07113 L 615.43424,199.392 z" style="fill:#644;fill-opacity:1;fill-rule:evenodd;stroke:#644;stroke-width:.99999994px;stroke-linecap:butt;stroke-linejoin:miter;stroke-opacity:1"/></g><g id="g36462"><path id="path5090" d="M 305.11367,283.45058 L 305.11367,317.81351" style="fill:none;fill-rule:evenodd;stroke:#644;stroke-width:1px;stroke-linecap:butt;stroke-linejoin:miter;stroke-opacity:1"/><path id="path6091" d="M 304.74498,321.08034 L 297.71514,304.74079 L 312.55793,304.75947 L 304.74498,321.08034 z" style="fill:#644;fill-opacity:1;fill-rule:evenodd;stroke:#644;stroke-width:1px;stroke-linecap:butt;stroke-linejoin:miter;stroke-opacity:1"/></g><g id="g35481"><path id="path5102" d="M 231.44552,360.37967 L 101.90386,360.37177 L 101.90386,442.12393" style="fill:none;fill-rule:evenodd;stroke:#644;stroke-width:1px;stroke-linecap:butt;stroke-linejoin:miter;stroke-opacity:1"/><path id="path6093" d="M 101.56677,442.23285 L 94.536926,425.8933 L 109.37972,425.91198 L 101.56677,442.23285 z" style="fill:#644;fill-opacity:1;fill-rule:evenodd;stroke:#644;stroke-width:1px;stroke-linecap:butt;stroke-linejoin:miter;stroke-opacity:1"/></g><g id="g36458"><path id="path5092" d="M 304.97187,405.761 L 304.97187,438.939" style="fill:none;fill-rule:evenodd;stroke:#644;stroke-width:1px;stroke-linecap:butt;stroke-linejoin:miter;stroke-opacity:1"/><path id="path6095" d="M 304.95451,442.87665 L 297.92467,426.5371 L 312.76746,426.55578 L 304.95451,442.87665 z" style="fill:#644;fill-opacity:1;fill-rule:evenodd;stroke:#644;stroke-width:1px;stroke-linecap:butt;stroke-linejoin:miter;stroke-opacity:1"/></g><g id="g35477"><path id="path5100" d="M 305.31925,558.66301 L 304.919,526.26968" style="fill:none;fill-rule:evenodd;stroke:#644;stroke-width:1px;stroke-linecap:butt;stroke-linejoin:miter;stroke-opacity:1"/><path id="path6097" d="M 305.159,563.61031 L 298.12916,547.27076 L 312.97195,547.28944 L 305.159,563.61031 z" style="fill:#644;fill-opacity:1;fill-rule:evenodd;stroke:#644;stroke-width:1px;stroke-linecap:butt;stroke-linejoin:miter;stroke-opacity:1"/></g><g id="g32548"><path id="path5094" d="M 616.58688,405.33207 L 616.58688,429.6898" style="fill:none;fill-rule:evenodd;stroke:#644;stroke-width:1px;stroke-linecap:butt;stroke-linejoin:miter;stroke-opacity:1"/><path id="path6099" d="M 616.73054,442.15621 L 609.7007,423.00216 L 624.54349,423.02406 L 616.73054,442.15621 z" style="fill:#644;fill-opacity:1;fill-rule:evenodd;stroke:#644;stroke-width:1px;stroke-linecap:butt;stroke-linejoin:miter;stroke-opacity:1"/></g><path style="fill:none;fill-rule:evenodd;stroke:#644;stroke-width:1px;stroke-linecap:butt;stroke-linejoin:miter;stroke-opacity:1" id="path5096" d="M 615.71768,282.99149 L 615.71768,318.53935"/><path style="fill:#644;fill-opacity:1;fill-rule:evenodd;stroke:#644;stroke-width:1px;stroke-linecap:butt;stroke-linejoin:miter;stroke-opacity:1" id="path6101" d="M 615.61508,321.09542 L 608.58524,304.75587 L 623.42803,304.77455 L 615.61508,321.09542 z"/><g id="g33523"><path id="path5098" d="M 614.97796,562.44101 L 614.97796,526.32537" style="fill:none;fill-rule:evenodd;stroke:#644;stroke-width:.99999994px;stroke-linecap:butt;stroke-linejoin:miter;stroke-opacity:1"/><path id="path6103" d="M 615.05926,564.37548 L 608.02942,550.14645 L 622.87221,550.16272 L 615.05926,564.37548 z" style="fill:#644;fill-opacity:1;fill-rule:evenodd;stroke:#644;stroke-width:.99999994px;stroke-linecap:butt;stroke-linejoin:miter;stroke-opacity:1"/></g><g id="g35485"><path id="path5104" d="M 387.36557,364.8894 L 469.23174,364.56615 L 469.12465,484.5642 L 381.65411,484.24194" style="fill:none;fill-rule:evenodd;stroke:#644;stroke-width:1px;stroke-linecap:butt;stroke-linejoin:miter;stroke-opacity:1"/><path id="path6105" d="M 381.98357,364.14797 L 398.32312,357.11813 L 398.30444,371.96092 L 381.98357,364.14797 z" style="fill:#644;fill-opacity:1;fill-rule:evenodd;stroke:#644;stroke-width:1px;stroke-linecap:butt;stroke-linejoin:miter;stroke-opacity:1"/></g><g id="g31573"><path id="path5106" d="M 691.61389,606.13847 L 731.10097,605.7627 L 731.10097,361.37729 L 697.09083,362.152" style="fill:none;fill-rule:evenodd;stroke:#644;stroke-width:.99999994px;stroke-linecap:butt;stroke-linejoin:miter;stroke-opacity:1"/><path id="path6107" d="M 692.27617,361.29934 L 708.61572,354.42793 L 708.59704,368.93622 L 692.27617,361.29934 z" style="fill:#644;fill-opacity:1;fill-rule:evenodd;stroke:#644;stroke-width:.99999994px;stroke-linecap:butt;stroke-linejoin:miter;stroke-opacity:1"/></g><g id="g34498"><path id="path5110" d="M 617.7263,648.24666 L 617.41362,757.97777 L 553.57541,757.97777" style="fill:none;fill-rule:evenodd;stroke:#644;stroke-width:1px;stroke-linecap:butt;stroke-linejoin:miter;stroke-opacity:1"/><path id="path6109" d="M 546.95272,757.69799 L 563.29227,750.32698 L 563.27359,765.89011 L 546.95272,757.69799 z" style="fill:#644;fill-opacity:1;fill-rule:evenodd;stroke:#644;stroke-width:1px;stroke-linecap:butt;stroke-linejoin:miter;stroke-opacity:1"/></g><g id="g35473"><path id="path5108" d="M 308.45993,647.85723 L 308.45993,757.62764 L 380.83952,757.69343" style="fill:none;fill-rule:evenodd;stroke:#644;stroke-width:1px;stroke-linecap:butt;stroke-linejoin:miter;stroke-opacity:1"/><path id="path6111" d="M 388.97014,757.90048 L 372.63059,764.93032 L 372.64927,750.08753 L 388.97014,757.90048 z" style="fill:#644;fill-opacity:1;fill-rule:evenodd;stroke:#644;stroke-width:1px;stroke-linecap:butt;stroke-linejoin:miter;stroke-opacity:1"/></g><text style="font-size:20px;font-style:normal;font-weight:400;text-align:center;text-anchor:middle;fill:#644;fill-opacity:1;stroke:none;stroke-width:1px;stroke-linecap:butt;stroke-linejoin:miter;stroke-opacity:1;font-family:Arial" id="text6189" x="463.004" y="94.494" xml:space="preserve"><tspan id="tspan15911" x="463.004" y="94.494">Treat</tspan></text><path style="fill:none;fill-rule:evenodd;stroke:#644;stroke-width:.99999994;stroke-linecap:butt;stroke-linejoin:miter;stroke-opacity:1;stroke-miterlimit:4;stroke-dasharray:.99999994,2.99999982;stroke-dashoffset:0" id="path14916" d="M 406.52869,242.8457 L 567.39182,242.83472"/><text style="font-size:20;font-style:normal;font-weight:400;text-align:center;text-anchor:middle;fill:#644;fill-opacity:1;stroke:none;stroke-width:1px;stroke-linecap:butt;stroke-linejoin:miter;stroke-opacity:1;font-family:Bitstream Vera Sans" id="text15913" x="302.949" y="233.818" xml:space="preserve"><tspan id="tspan15915" x="302.949" y="233.818">Snow</tspan><tspan id="tspan15917" x="302.949" y="258.818">Cone</tspan></text><text style="font-size:20px;font-style:normal;font-weight:400;text-align:center;text-anchor:middle;fill:#644;fill-opacity:1;stroke:none;stroke-width:1px;stroke-linecap:butt;stroke-linejoin:miter;stroke-opacity:1;font-family:Bitstream Vera Sans" id="text17913" x="624.17" y="248.308" xml:space="preserve"><tspan id="tspan17917" x="624.17" y="248.308">Gumball</tspan></text><text style="font-size:20px;font-style:normal;font-weight:400;text-align:center;text-anchor:middle;fill:#644;fill-opacity:1;stroke:none;stroke-width:1px;stroke-linecap:butt;stroke-linejoin:miter;stroke-opacity:1;font-family:Bitstream Vera Sans" id="text17919" x="618.228" y="367.682" xml:space="preserve"><tspan id="tspan17923" x="618.228" y="367.682">Teeth</tspan></text><text style="font-size:20px;font-style:normal;font-weight:400;text-align:center;text-anchor:middle;fill:#644;fill-opacity:1;stroke:none;stroke-width:1px;stroke-linecap:butt;stroke-linejoin:miter;stroke-opacity:1;font-family:Bitstream Vera Sans" id="text17925" x="618.286" y="489.229" xml:space="preserve"><tspan id="tspan17929" x="618.286" y="489.229">Water</tspan></text><text style="font-size:20px;font-style:normal;font-weight:400;text-align:center;text-anchor:middle;fill:#644;fill-opacity:1;stroke:none;stroke-width:1px;stroke-linecap:butt;stroke-linejoin:miter;stroke-opacity:1;font-family:Bitstream Vera Sans" id="text17931" x="616.228" y="612.197" xml:space="preserve"><tspan id="tspan17935" x="616.228" y="612.197">Chew</tspan></text><text style="font-size:20px;font-style:normal;font-weight:400;text-align:center;text-anchor:middle;fill:#644;fill-opacity:1;stroke:none;stroke-width:1px;stroke-linecap:butt;stroke-linejoin:miter;stroke-opacity:1;font-family:Bitstream Vera Sans" id="text17937" x="469.086" y="765.497" xml:space="preserve"><tspan id="tspan17941" x="469.086" y="765.497">Excellent</tspan></text><text style="font-size:20px;font-style:normal;font-weight:400;text-align:center;text-anchor:middle;fill:#644;fill-opacity:1;stroke:none;stroke-width:1px;stroke-linecap:butt;stroke-linejoin:miter;stroke-opacity:1;font-family:Bitstream Vera Sans" id="text17943" x="303.585" y="612.255" xml:space="preserve"><tspan id="tspan17947" x="303.585" y="612.255">Lick</tspan></text><text style="font-size:20px;font-style:normal;font-weight:400;text-align:center;text-anchor:middle;fill:#644;fill-opacity:1;stroke:none;stroke-width:1px;stroke-linecap:butt;stroke-linejoin:miter;stroke-opacity:1;font-family:Bitstream Vera Sans" id="text17949" x="304.598" y="490.317" xml:space="preserve"><tspan id="tspan17953" x="304.598" y="490.317">Water</tspan></text><text style="font-size:20px;font-style:normal;font-weight:400;text-align:center;text-anchor:middle;fill:#644;fill-opacity:1;stroke:none;stroke-width:1px;stroke-linecap:butt;stroke-linejoin:miter;stroke-opacity:1;font-family:Bitstream Vera Sans" id="text17955" x="301.918" y="366.363" xml:space="preserve"><tspan id="tspan17959" x="301.918" y="366.363">Hot Day</tspan></text><text style="font-size:20px;font-style:normal;font-weight:400;text-align:center;text-anchor:middle;fill:#644;fill-opacity:1;stroke:none;stroke-width:1px;stroke-linecap:butt;stroke-linejoin:miter;stroke-opacity:1;font-family:Bitstream Vera Sans" id="text17961" x="100.981" y="490.026" xml:space="preserve"><tspan id="tspan17965" x="100.981" y="490.026">Ground</tspan></text><g id="g38457"><rect id="rect36476" width="66.998" height="24.275" x="348.643" y="154.197" rx="18.571" ry="0" style="color:#000;fill:#fff;fill-opacity:1;fill-rule:nonzero;stroke:#fff;stroke-width:.99999988;stroke-linecap:square;stroke-linejoin:miter;marker:none;marker-start:none;marker-mid:none;marker-end:none;stroke-miterlimit:4;stroke-dasharray:.9999999,2.9999997;stroke-dashoffset:0;stroke-opacity:1;visibility:visible;display:inline;overflow:visible;enable-background:accumulate"/><text id="text37447" x="382.394" y="173.252" xml:space="preserve" style="font-size:20px;font-style:normal;font-weight:400;text-align:center;text-anchor:middle;fill:#644;fill-opacity:1;stroke:none;stroke-width:1px;stroke-linecap:butt;stroke-linejoin:miter;stroke-opacity:1;font-family:Bitstream Vera Sans"><tspan id="tspan37451" x="382.394" y="173.252">Short</tspan></text></g><g id="g38445" transform="translate(353.61433,53.404436)"><rect id="rect38436" width="66.998" height="24.275" x="150.018" y="101.278" rx="18.571" ry="0" style="opacity:1;color:#000;fill:#fff;fill-opacity:1;fill-rule:nonzero;stroke:#fff;stroke-width:.99999988;stroke-linecap:square;stroke-linejoin:miter;marker:none;marker-start:none;marker-mid:none;marker-end:none;stroke-miterlimit:4;stroke-dasharray:.9999999,2.9999997;stroke-dashoffset:0;stroke-opacity:1;visibility:visible;display:inline;overflow:visible;enable-background:accumulate"/><text id="text37455" x="185.044" y="119.9" xml:space="preserve" style="font-size:20px;font-style:normal;font-weight:400;text-align:center;text-anchor:middle;fill:#644;fill-opacity:1;stroke:none;stroke-width:1px;stroke-linecap:butt;stroke-linejoin:miter;stroke-opacity:1;font-family:Bitstream Vera Sans"><tspan id="tspan37457" x="185.044" y="119.9">Long</tspan></text></g><g id="g38481" transform="translate(20.390785,-52.433446)"><rect id="rect38443" width="27.188" height="24.275" x="676.294" y="646.003" rx="18.571" ry="0" style="color:#000;fill:#fff;fill-opacity:1;fill-rule:nonzero;stroke:#fff;stroke-width:.99999988;stroke-linecap:square;stroke-linejoin:miter;marker:none;marker-start:none;marker-mid:none;marker-end:none;stroke-miterlimit:4;stroke-dasharray:.9999999,2.99999971;stroke-dashoffset:0;stroke-opacity:1;visibility:visible;display:inline;overflow:visible;enable-background:accumulate"/><text id="text38453" x="689.959" y="664.625" xml:space="preserve" style="font-size:20px;font-style:normal;font-weight:400;text-align:center;text-anchor:middle;fill:#644;fill-opacity:1;stroke:none;stroke-width:1px;stroke-linecap:butt;stroke-linejoin:miter;stroke-opacity:1;font-family:Bitstream Vera Sans"><tspan id="tspan38455" x="689.959" y="664.625">No</tspan></text></g><g id="g38468" transform="translate(399.07678,595.33275)"><rect id="rect38466" width="45.637" height="24.275" x="168.293" y="150.74" rx="18.571" ry="0" style="opacity:1;color:#000;fill:#fff;fill-opacity:1;fill-rule:nonzero;stroke:#fff;stroke-width:.99999982;stroke-linecap:square;stroke-linejoin:miter;marker:none;marker-start:none;marker-mid:none;marker-end:none;stroke-miterlimit:4;stroke-dasharray:.9999999,2.9999997;stroke-dashoffset:0;stroke-opacity:1;visibility:visible;display:inline;overflow:visible;enable-background:accumulate"/><text id="text38462" x="191.817" y="170.084" xml:space="preserve" style="font-size:20px;font-style:normal;font-weight:400;text-align:center;text-anchor:middle;fill:#644;fill-opacity:1;stroke:none;stroke-width:1px;stroke-linecap:butt;stroke-linejoin:miter;stroke-opacity:1;font-family:Bitstream Vera Sans"><tspan id="tspan38464" x="191.817" y="170.084">Yes</tspan></text></g><g id="g38497" transform="matrix(0,-1,1,0,302.11049,503.69497)"><rect id="rect38488" width="66.998" height="24.275" x="46.064" y="154.682" rx="18.571" ry="0" style="color:#000;fill:#fff;fill-opacity:1;fill-rule:nonzero;stroke:#fff;stroke-width:.99999988;stroke-linecap:square;stroke-linejoin:miter;marker:none;marker-start:none;marker-mid:none;marker-end:none;stroke-miterlimit:4;stroke-dasharray:.9999999,2.9999997;stroke-dashoffset:0;stroke-opacity:1;visibility:visible;display:inline;overflow:visible;enable-background:accumulate"/><text id="text38490" x="79.872" y="173.737" xml:space="preserve" style="font-size:20px;font-style:normal;font-weight:400;text-align:center;text-anchor:middle;fill:#644;fill-opacity:1;stroke:none;stroke-width:1px;stroke-linecap:butt;stroke-linejoin:miter;stroke-opacity:1;font-family:Bitstream Vera Sans"><tspan id="tspan38492" x="79.872" y="173.737">Drink</tspan></text></g><g id="g38513" transform="translate(71.853241,204.93686)"><rect id="rect38504" width="66.998" height="24.275" x="63.6" y="142.059" rx="18.571" ry="0" style="color:#000;fill:#fff;fill-opacity:1;fill-rule:nonzero;stroke:#fff;stroke-width:.99999988;stroke-linecap:square;stroke-linejoin:miter;marker:none;marker-start:none;marker-mid:none;marker-end:none;stroke-miterlimit:4;stroke-dasharray:.9999999,2.9999997;stroke-dashoffset:0;stroke-opacity:1;visibility:visible;display:inline;overflow:visible;enable-background:accumulate"/><text id="text38506" x="97.35" y="161.114" xml:space="preserve" style="font-size:20px;font-style:normal;font-weight:400;text-align:center;text-anchor:middle;fill:#644;fill-opacity:1;stroke:none;stroke-width:1px;stroke-linecap:butt;stroke-linejoin:miter;stroke-opacity:1;font-family:Bitstream Vera Sans"><tspan id="tspan38508" x="97.35" y="161.114">Drop</tspan></text></g><rect style="opacity:1;color:#000;fill:#000;fill-opacity:1;fill-rule:nonzero;stroke:#000;stroke-width:2.5;stroke-linecap:square;stroke-linejoin:miter;marker:none;marker-start:none;marker-mid:none;marker-end:none;stroke-miterlimit:4;stroke-dasharray:none;stroke-dashoffset:0;stroke-opacity:1;visibility:visible;display:inline;overflow:visible;filter:url(#filter12524);enable-background:accumulate" id="rect12537" width="147.143" height="80" x="-410.505" y="-12.032" rx="18.571" ry="17.143"/></g></svg>