<svg xmlns="http://www.w3.org/2000/svg" xmlns:xlink="http://www.w3.org/1999/xlink" width="772" height="386" version="1.1" viewBox="0 0 772 386" style="background:#fff"><title>property_graph_chp_01</title><desc>Created with Sketch.</desc><g id="Figures" fill="none" fill-rule="evenodd" stroke="none" stroke-width="1"><text id="Property-Graph" fill="#4A4A4A" font-family="Helvetica" font-size="16" font-weight="normal"><tspan x="648.617" y="347">Property Graph</tspan></text><text id="A-simple-graph-model" fill="#4A4A4A" font-family="Helvetica" font-size="14" font-weight="normal"><tspan x="469.312" y="367">A simple graph model of a software repository.</tspan></text><g id="node-copy-3" transform="translate(657.000000, 150.000000)"><circle id="Oval-2-Copy-4" cx="43" cy="43" r="43" fill="#F0F8FF" stroke="#B3B3B3" stroke-width="3"/><text id="Repository" fill="#4A4A4A" font-family="Menlo-Regular, Menlo" font-size="12" font-weight="normal"><tspan x="6.877" y="48">Repository</tspan></text></g><g id="node-copy-2" transform="translate(47.000000, 150.000000)"><circle id="Oval-2-Copy-4" cx="43" cy="43" r="43" fill="#F0F8FF" stroke="#B3B3B3" stroke-width="3"/><text id="User" fill="#4A4A4A" font-family="Menlo-Regular, Menlo" font-size="12" font-weight="normal"><tspan x="28.551" y="48">User</tspan></text></g><g id="node-copy-9" transform="translate(47.000000, 12.000000)"><circle id="Oval-2-Copy-4" cx="43" cy="43" r="43" fill="#F0F8FF" stroke="#B3B3B3" stroke-width="3"/><text id="User" fill="#4A4A4A" font-family="Menlo-Regular, Menlo" font-size="12" font-weight="normal"><tspan x="28.551" y="48">User</tspan></text></g><g id="node-copy-10" transform="translate(481.000000, 48.000000)"><circle id="Oval-2-Copy-4" cx="43" cy="43" r="43" fill="#F0F8FF" stroke="#B3B3B3" stroke-width="3"/><text id="User" fill="#4A4A4A" font-family="Menlo-Regular, Menlo" font-size="12" font-weight="normal"><tspan x="28.551" y="48">User</tspan></text></g><g id="node-copy-6" transform="translate(439.000000, 243.000000)"><circle id="Oval-2-Copy-4" cx="43" cy="43" r="43" fill="#F0F8FF" stroke="#B3B3B3" stroke-width="3"/><text id="Issue" fill="#4A4A4A" font-family="Menlo-Regular, Menlo" font-size="12" font-weight="normal"><tspan x="24.938" y="48">Issue</tspan></text></g><g id="node-copy-8" transform="translate(265.000000, 56.000000)"><circle id="Oval-2-Copy-4" cx="43" cy="43" r="43" fill="#F0F8FF" stroke="#B3B3B3" stroke-width="3"/><text id="Commit" fill="#4A4A4A" font-family="Menlo-Regular, Menlo" font-size="12" font-weight="normal"><tspan x="21.326" y="48">Commit</tspan></text></g><g id="node-copy-7" transform="translate(265.000000, 243.000000)"><circle id="Oval-2-Copy-4" cx="43" cy="43" r="43" fill="#F0F8FF" stroke="#B3B3B3" stroke-width="3"/><text id="Comment" fill="#4A4A4A" font-family="Menlo-Regular, Menlo" font-size="12" font-weight="normal"><tspan x="17.714" y="48">Comment</tspan></text></g><g id="node-copy-5" transform="translate(654.000000, 12.000000)"><circle id="Oval-2-Copy-4" cx="46" cy="43" r="43" fill="#F0F8FF" stroke="#B3B3B3" stroke-width="3"/><text id="Organization" fill="#4A4A4A" font-family="Menlo-Regular, Menlo" font-size="12" font-weight="normal" letter-spacing="-.7"><tspan x="7.002" y="48">Organizatio</tspan> <tspan x="78.773" y="48">n</tspan></text></g><g id="node-copy-4" transform="translate(47.000000, 288.000000)"><circle id="Oval-2-Copy-4" cx="43" cy="43" r="43" fill="#F0F8FF" stroke="#B3B3B3" stroke-width="3"/><text id="Gist" fill="#4A4A4A" font-family="Menlo-Regular, Menlo" font-size="12" font-weight="normal"><tspan x="28.551" y="48">Gist</tspan></text></g><g id="Wireframe-Line-01" stroke="#666"><g transform="translate(352.000000, 276.000000)"><polyline id="arrowhead" stroke-linecap="round" stroke-linejoin="round" stroke-width="2" points="78 2 86 10 78 18"/><path id="Line" stroke-width="2" d="M85,10 L0,10"/></g></g><g id="Wireframe-Line-01" stroke="#666"><g transform="translate(119.000000, 216.000000)"><polyline id="arrowhead" stroke-linecap="round" stroke-linejoin="round" stroke-width="2" points="543 2 551 10 543 18"/><path id="Line" stroke-width="2" d="M550,10 L0,10"/></g></g><g id="Wireframe-Line-01" stroke="#666"><g transform="translate(90.000000, 261.500000) rotate(-270.000000) translate(-90.000000, -261.500000) translate(65.500000, 251.500000)"><polyline id="arrowhead" stroke-linecap="round" stroke-linejoin="round" stroke-width="2" points="41 2 49 10 41 18"/><path id="Line" stroke-width="2" d="M48,10 L0,10"/></g></g><g id="Wireframe-Line-01" stroke="#666"><g transform="translate(700.000000, 123.500000) rotate(-270.000000) translate(-700.000000, -123.500000) translate(675.500000, 113.500000)"><polyline id="arrowhead" stroke-linecap="round" stroke-linejoin="round" stroke-width="2" points="41 2 49 10 41 18"/><path id="Line" stroke-width="2" d="M48,10 L0,10"/></g></g><g id="Wireframe-Line-01" stroke="#666"><g transform="translate(90.000000, 124.500000) rotate(-90.000000) translate(-90.000000, -124.500000) translate(65.500000, 114.500000)"><polyline id="arrowhead" stroke-linecap="round" stroke-linejoin="round" stroke-width="2" points="41 2 49 10 41 18"/><path id="Line" stroke-width="2" d="M48,10 L0,10"/></g></g><g id="Wireframe-Line-01" stroke="#666"><g transform="translate(130.000000, 200.000000)"><polyline id="arrowhead" stroke-linecap="round" stroke-linejoin="round" stroke-width="2" points="521 2 529 10 521 18"/><path id="Line" stroke-width="2" d="M528,10 L0,10"/></g></g><g id="Wireframe-Line-01" stroke="#666"><g transform="translate(133.000000, 184.000000)"><polyline id="arrowhead" stroke-linecap="round" stroke-linejoin="round" stroke-width="2" points="514 2 522 10 514 18"/><path id="Line" stroke-width="2" d="M521,10 L0,10"/></g></g><g id="Wireframe-Line-01" stroke="#666"><g transform="translate(129.000000, 167.000000)"><polyline id="arrowhead" stroke-linecap="round" stroke-linejoin="round" stroke-width="2" points="523 2 531 10 523 18"/><path id="Line" stroke-width="2" d="M530,10 L0,10"/></g></g><g id="Wireframe-Line-01" stroke="#666"><g transform="translate(119.000000, 151.000000)"><polyline id="arrowhead" stroke-linecap="round" stroke-linejoin="round" stroke-width="2" points="543 2 551 10 543 18"/><path id="Line" stroke-width="2" d="M550,10 L0,10"/></g></g><g id="Wireframe-Line-01" stroke="#666"><g transform="translate(556.000000, 53.000000)"><polyline id="arrowhead" stroke-linecap="round" stroke-linejoin="round" stroke-width="2" points="93 2 101 10 93 18"/><path id="Line" stroke-width="2" d="M100,10 L0,10"/></g></g><g id="Group-3-Copy-4" transform="translate(408.000000, 216.000000)"><rect id="Rectangle" width="79" height="20" x="0" y="0" fill="#FFF"/><text id="downloaded" fill="#4A4A4A" font-family="Menlo-Regular, Menlo" font-size="12" font-weight="normal"><tspan x="3.377" y="14">downloaded</tspan></text></g><g id="Wireframe-Line-04" stroke="#666" transform="translate(161.500000, 244.000000) scale(-1, 1) rotate(-270.000000) translate(-161.500000, -244.000000) translate(148.500000, 194.500000)"><g id="bend-line-07"><path stroke-width="2" d="M0,88 C0,88 0,86.2022898 0,83.9901533 L0,4.00984669 C0,1.79526951 1.79775299,0 4.00328408,0 L13.9701493,0" transform="translate(6.985075, 44.000000) scale(-1, 1) translate(-6.985075, -44.000000)"/></g></g><g id="Group-3-Copy" transform="translate(214.000000, 167.000000)"><rect id="Rectangle" width="58" height="20" x="0" y="0" fill="#FFF"/><text id="deleted" fill="#4A4A4A" font-family="Menlo-Regular, Menlo" font-size="12" font-weight="normal"><tspan x="3.214" y="14">deleted</tspan></text></g><g id="Group-3-Copy-2" transform="translate(277.000000, 184.000000)"><rect id="Rectangle" width="53" height="20" x="0" y="0" fill="#FFF"/><text id="forked" fill="#4A4A4A" font-family="Menlo-Regular, Menlo" font-size="12" font-weight="normal"><tspan x="4.826" y="14">forked</tspan></text></g><g id="Group-3" transform="translate(151.000000, 151.000000)"><rect id="Rectangle" width="57" height="20" x="0" y="0" fill="#FFF"/><text id="created" fill="#4A4A4A" font-family="Menlo-Regular, Menlo" font-size="12" font-weight="normal"><tspan x="3.214" y="14">created</tspan></text></g><g id="Wireframe-Line-01" stroke="#666"><g transform="translate(129.000000, 31.000000)"><polyline id="arrowhead" stroke-linecap="round" stroke-linejoin="round" stroke-width="2" points="522 2 530 10 522 18"/><path id="Line" stroke-width="2" d="M529,10 L0,10"/></g></g><g id="Group-3-Copy-3" transform="translate(337.000000, 200.000000)"><rect id="Rectangle" width="59" height="20" x="0" y="0" fill="#FFF"/><text id="watched" fill="#4A4A4A" font-family="Menlo-Regular, Menlo" font-size="12" font-weight="normal"><tspan x="4.214" y="14">watched</tspan></text></g><g id="Group-3-Copy-7" transform="translate(337.000000, 200.000000)"><rect id="Rectangle" width="59" height="20" x="0" y="0" fill="#FFF"/><text id="watched" fill="#4A4A4A" font-family="Menlo-Regular, Menlo" font-size="12" font-weight="normal"><tspan x="4.214" y="14">watched</tspan></text></g><g id="Group-3-Copy-9" transform="translate(379.000000, 276.000000)"><rect id="Rectangle" width="22" height="20" x=".5" y="0" fill="#FFF"/><text id="on" fill="#4A4A4A" font-family="Menlo-Regular, Menlo" font-size="12" font-weight="normal"><tspan x="4.275" y="14">on</tspan></text></g><g id="Group-3-Copy-13" transform="translate(379.000000, 276.000000)"><rect id="Rectangle" width="22" height="20" x=".5" y="0" fill="#FFF"/><text id="on" fill="#4A4A4A" font-family="Menlo-Regular, Menlo" font-size="12" font-weight="normal"><tspan x="4.275" y="14">on</tspan></text></g><g id="Wireframe-Line-04" stroke="#666"><g transform="translate(194.000000, 245.000000)"><path id="bend-line-07" stroke-width="2" d="M0,42 L27.1904372,42 C29.3982136,42 31.1879699,40.2087482 31.1879699,37.9918888 L31.1879699,4.00811116 C31.1879699,1.79449249 32.9884103,0 35.1975788,0 L68,0" transform="translate(34.000000, 21.000000) scale(-1, 1) translate(-34.000000, -21.000000)"/><polyline id="Path-2" stroke-linecap="round" stroke-linejoin="round" stroke-width="2" points="61 34 69 42 61 50"/></g></g><g id="Group-3-Copy-8" transform="translate(151.000000, 235.000000)"><rect id="Rectangle" width="57" height="20" x="0" y="0" fill="#FFF"/><text id="created" fill="#4A4A4A" font-family="Menlo-Regular, Menlo" font-size="12" font-weight="normal"><tspan x="3.214" y="14">created</tspan></text></g><g id="Wireframe-Line-04" stroke="#666" transform="translate(161.500000, 142.000000) scale(-1, -1) rotate(-270.000000) translate(-161.500000, -142.000000) translate(148.500000, 92.500000)"><g id="bend-line-07"><path stroke-width="2" d="M0,88 C0,88 0,86.2022898 0,83.9901533 L0,4.00984669 C0,1.79526951 1.79775299,0 4.00328408,0 L13.9701493,0" transform="translate(6.985075, 44.000000) scale(-1, 1) translate(-6.985075, -44.000000)"/></g></g><g id="Wireframe-Line-04" stroke="#666" transform="translate(197.000000, 331.000000) rotate(-270.000000) translate(-197.000000, -331.000000) translate(184.000000, 250.000000)"><g id="bend-line-07"><path stroke-width="2" d="M0,144 C0,144 0,142.205373 0,139.998322 L0,4.00167775 C0,1.79161216 1.79775299,0 4.00328408,0 L13.9701493,0" transform="translate(6.985075, 72.000000) scale(-1, 1) translate(-6.985075, -72.000000)"/></g></g><g id="Wireframe-Line-04" stroke="#666" transform="translate(45.000000, 135.500000) scale(-1, -1) rotate(-360.000000) translate(-45.000000, -135.500000) translate(32.000000, 109.000000)"><g id="bend-line-07"><path stroke-width="2" d="M0,47.1111111 C0,47.1111111 0,45.3218274 0,43.1147669 L0,3.99634418 C0,1.78922423 1.79775299,0 4.00328408,0 L13.9701493,0" transform="translate(6.985075, 23.555556) scale(-1, 1) translate(-6.985075, -23.555556)"/></g></g><g id="Wireframe-Line-04" stroke="#666" transform="translate(45.000000, 112.500000) scale(1, -1) rotate(-180.000000) translate(-45.000000, -112.500000) translate(32.000000, 86.000000)"><g id="bend-line-07"><path stroke-width="2" d="M0,47.1111111 C0,47.1111111 0,45.3218274 0,43.1147669 L0,3.99634418 C0,1.78922423 1.79775299,0 4.00328408,0 L13.9701493,0" transform="translate(6.985075, 23.555556) scale(-1, 1) translate(-6.985075, -23.555556)"/></g></g><g id="Wireframe-Line-04" stroke="#666" transform="translate(630.500000, 142.000000) scale(1, -1) rotate(-270.000000) translate(-630.500000, -142.000000) translate(617.500000, 92.500000)"><g id="bend-line-07"><path stroke-width="2" d="M0,88 C0,88 0,86.2022898 0,83.9901533 L0,4.00984669 C0,1.79526951 1.79775299,0 4.00328408,0 L13.9701493,0" transform="translate(6.985075, 44.000000) scale(-1, 1) translate(-6.985075, -44.000000)"/></g></g><g id="Wireframe-Line-04" stroke="#666"><g transform="translate(228.500000, 116.000000) scale(1, -1) translate(-228.500000, -116.000000) translate(194.000000, 91.000000)"><path id="bend-line-07" stroke-width="2" d="M0,42 L27.1904372,42 C29.3982136,42 31.1879699,40.2087482 31.1879699,37.9918888 L31.1879699,4.00811116 C31.1879699,1.79449249 32.9884103,0 35.1975788,0 L68,0" transform="translate(34.000000, 21.000000) scale(-1, 1) translate(-34.000000, -21.000000)"/><polyline id="Path-2" stroke-linecap="round" stroke-linejoin="round" stroke-width="2" points="61 34 69 42 61 50"/></g></g><g id="Wireframe-Line-04-Copy-4" stroke="#666" stroke-width="2" transform="translate(473.000000, 120.000000) scale(-1, -1) translate(-473.000000, -120.000000) translate(352.000000, 99.000000)"><g id="Wireframe-Line-04"><path id="bend-line-07" d="M0,42 L47.1355879,42 L106.997947,42 C109.204067,42 110.992481,40.2087482 110.992481,37.9918888 L110.992481,4.00811116 C110.992481,1.79449249 112.782225,0 114.984808,0 L242,0" transform="translate(121.000000, 21.000000) scale(-1, 1) translate(-121.000000, -21.000000)"/></g></g><g id="Wireframe-Line-04" stroke="#666" transform="translate(602.000000, 282.500000) rotate(-270.000000) translate(-602.000000, -282.500000) translate(556.500000, 184.500000)"><g id="bend-line-07"><path stroke-width="2" d="M0,174.222222 C0,174.222222 0,172.441134 0,170.214165 L0,4.00805736 C0,1.7944684 1.79820608,0 4.00132581,0 L48.8955224,0" transform="translate(24.447761, 87.111111) scale(-1, 1) translate(-24.447761, -87.111111)"/></g></g><g id="Group-3-Copy-10" transform="translate(151.000000, 130.000000)"><rect id="Rectangle" width="57" height="20" x="0" y="0" fill="#FFF"/><text id="pushed" fill="#4A4A4A" font-family="Menlo-Regular, Menlo" font-size="12" font-weight="normal"><tspan x="6.826" y="14">pushed</tspan></text></g><g id="Group-3-Copy-16" transform="translate(62.000000, 116.000000)"><rect id="Rectangle" width="57" height="20" x="0" y="0" fill="#FFF"/><text id="added" fill="#4A4A4A" font-family="Menlo-Regular, Menlo" font-size="12" font-weight="normal"><tspan x="10.438" y="14">added</tspan></text></g><g id="Group-3-Copy-17" transform="translate(15.000000, 133.000000)"><rect id="Rectangle" width="22" height="20" x="16" y="0" fill="#FFF"/><text id="followed" fill="#4A4A4A" font-family="Menlo-Regular, Menlo" font-size="12" font-weight="normal" letter-spacing="-.3"><tspan x=".652" y="14">followe</tspan> <tspan x="49.124" y="14">d</tspan></text></g><g id="Group-3-Copy-11" transform="translate(392.000000, 89.000000)"><rect id="Rectangle" width="24" height="20" x="0" y="0" fill="#FFF"/><text id="to" fill="#4A4A4A" font-family="Menlo-Regular, Menlo" font-size="12" font-weight="normal"><tspan x="4.275" y="14">to</tspan></text></g><g id="Group-3-Copy-12" transform="translate(168.000000, 31.000000)"><rect id="Rectangle" width="24" height="20" x="0" y="0" fill="#FFF"/><text id="to" fill="#4A4A4A" font-family="Menlo-Regular, Menlo" font-size="12" font-weight="normal"><tspan x="4.275" y="14">to</tspan></text></g><polyline id="Path-2" stroke="#666" stroke-linecap="round" stroke-linejoin="round" stroke-width="2" points="676 143 684 151 676 159" transform="translate(680.000000, 151.000000) rotate(-270.000000) translate(-680.000000, -151.000000)"/><polyline id="Path-2-Copy-3" stroke="#666" stroke-linecap="round" stroke-linejoin="round" stroke-width="2" points="134 324 142 332 134 340" transform="translate(138.000000, 332.000000) rotate(-180.000000) translate(-138.000000, -332.000000)"/><polyline id="Path-2-Copy-2" stroke="#666" stroke-linecap="round" stroke-linejoin="round" stroke-width="2" points="50 78 58 86 50 94"/><polyline id="Path-2-Copy" stroke="#666" stroke-linecap="round" stroke-linejoin="round" stroke-width="2" points="696 233 704 241 696 249" transform="translate(700.000000, 241.000000) rotate(-90.000000) translate(-700.000000, -241.000000)"/><g id="Group-3-Copy-5" transform="translate(60.000000, 248.000000)"><rect id="Rectangle" width="57" height="20" x="0" y="0" fill="#FFF"/><text id="created" fill="#4A4A4A" font-family="Menlo-Regular, Menlo" font-size="12" font-weight="normal"><tspan x="3.214" y="14">created</tspan></text></g><g id="Group-3-Copy-6" transform="translate(672.000000, 109.000000)"><rect id="Rectangle" width="57" height="20" x="0" y="0" fill="#FFF"/><text id="owns" fill="#4A4A4A" font-family="Menlo-Regular, Menlo" font-size="12" font-weight="normal"><tspan x="14.051" y="14">owns</tspan></text></g><g id="Group-3-Copy-18" transform="translate(587.000000, 53.000000)"><rect id="Rectangle" width="37" height="20" x="0" y="0" fill="#FFF"/><text id="owns" fill="#4A4A4A" font-family="Menlo-Regular, Menlo" font-size="12" font-weight="normal"><tspan x="4.051" y="14">owns</tspan></text></g><g id="Wireframe-Line-01" stroke="#666"><g transform="translate(567.000000, 75.000000)"><polyline id="arrowhead" stroke-linecap="round" stroke-linejoin="round" stroke-width="2" points="91 2 99 10 91 18"/><path id="Line" stroke-width="2" d="M98,10 L0,10"/></g></g><g id="Group-3-Copy-19" transform="translate(579.000000, 75.000000)"><rect id="Rectangle" width="70" height="20" x="0" y="0" fill="#FFF"/><text id="member_of" fill="#4A4A4A" font-family="Menlo-Regular, Menlo" font-size="12" font-weight="normal" letter-spacing="-.3"><tspan x="4.189" y="14">member_o</tspan> <tspan x="59.586" y="14">f</tspan></text></g><g id="Group-3-Copy-15" transform="translate(547.000000, 276.000000)"><rect id="Rectangle" width="22" height="20" x=".5" y="0" fill="#FFF"/><text id="on" fill="#4A4A4A" font-family="Menlo-Regular, Menlo" font-size="12" font-weight="normal"><tspan x="4.275" y="14">on</tspan></text></g><g id="Group-3-Copy-14" transform="translate(547.000000, 276.000000)"><rect id="Rectangle" width="22" height="20" x=".5" y="0" fill="#FFF"/><text id="on" fill="#4A4A4A" font-family="Menlo-Regular, Menlo" font-size="12" font-weight="normal"><tspan x="4.275" y="14">on</tspan></text></g><g id="Group-3-Copy-20" transform="translate(229.000000, 322.000000)"><rect id="Rectangle" width="22" height="20" x=".5" y="0" fill="#FFF"/><text id="on" fill="#4A4A4A" font-family="Menlo-Regular, Menlo" font-size="12" font-weight="normal"><tspan x="4.275" y="14">on</tspan></text></g></g></svg>